<?xml version="1.0" standalone="no"?>
<!DOCTYPE svg PUBLIC "-//W3C//DTD SVG 20010904//EN"
 "http://www.w3.org/TR/2001/REC-SVG-20010904/DTD/svg10.dtd">
<svg version="1.0" xmlns="http://www.w3.org/2000/svg"
 width="340.000000pt" height="340.000000pt" viewBox="0 0 340.000000 340.000000"
 preserveAspectRatio="xMidYMid meet">
<metadata>
Created by potrace 1.14, written by Peter Selinger 2001-2017
</metadata>
<g transform="translate(0.000000,340.000000) scale(0.100000,-0.100000)"
fill="#000000" stroke="none">
<path d="M260 3381 c-104 -33 -185 -102 -235 -200 l-25 -50 0 -1427 0 -1427
26 -53 c46 -94 135 -167 247 -204 46 -15 2740 -23 2822 -9 112 20 227 104 281
205 l24 45 0 1435 0 1435 -25 54 c-34 71 -104 139 -185 178 l-65 32 -1405 2
c-1307 1 -1409 0 -1460 -16z"/>
</g>
</svg>
